<svg width="224" height="130" fill="none" xmlns="http://www.w3.org/2000/svg"><g clip-path="url(#clip0)"><path d="M13 122l-3-3-3 3c-2 0-3 2-3 5h12c0-3-1-5-3-5z" fill="#00BAFC"/><path d="M59 126H1v1h58v-1z" fill="#3F3D56"/><path d="M219 111h-1c0-2-1-3-2-3l-3 3h-1l-2 4h11l-2-4z" fill="#00BAFC"/><path d="M195 24h-56v-1h-25v1H59a4 4 0 00-4 4v75a4 4 0 004 4h136a4 4 0 003-4V28a4 4 0 00-3-4z" fill="#3F3D56"/><path opacity=".2" d="M193 31H60v75h133V31z" fill="#000"/><path d="M127 29a1 1 0 100-3 1 1 0 000 3z" fill="#00BAFC"/><path d="M223 115H30h193z" fill="#3F3D56"/><path d="M145 59v-6a7 7 0 00-7-7h-5l-6-1v-7a4 4 0 10-1 0v7l-5 1h-7a7 7 0 00-6 7v6c-1 0-2 2-2 6l2 6v6a7 7 0 006 7h24a7 7 0 007-7v-6l1-6-1-6z" fill="#00BAFC"/><path d="M116 49h21a6 6 0 016 6v21a6 6 0 01-6 6h-21a6 6 0 01-6-6V55a6 6 0 016-6z" fill="#3F3D56"/><path d="M119 64a4 4 0 01-5-4h1a4 4 0 007 0h1a4 4 0 01-4 4zM126 72a3 3 0 01-3-3 3 3 0 006 0h1a3 3 0 01-4 3zM134 64a4 4 0 01-4-4 4 4 0 008 0 4 4 0 01-4 4z" fill="#00BAFC"/><path d="M119 62a2 2 0 100-4 2 2 0 000 4zM134 62a2 2 0 100-4 2 2 0 000 4zM126 71l2-1-2-1-2 1 2 1z" fill="#00BAFC"/><path d="M202 104h-13v-1h-5v1h-3v-1h-4v1h-3v-1h-5v1h-3v-1h-5v1h-2v-1h-5v1h-3v-1h-5v1h-2v-1h-36v1h-2v-1h-5v1h-3v-1h-5v1h-3v-1h-4v1h-3v-1h-5v1h-3v-1h-5v1h-2v-1h-5v1h-9a4 4 0 00-4 5v2a4 4 0 004 4h148a4 4 0 004-4v-2a4 4 0 00-4-5z" fill="#3F3D56"/><path d="M169 84H81h88z" fill="#00BAFC"/><path d="M87 83H65V59h22v24z" fill="#D0CDE1"/><path d="M84 64H68v1h16v-1zM84 67H68v1h16v-1zM84 70H68v2h16v-2zM84 74H68v1h16v-1zM84 77H68v1h16v-1z" fill="#3F3D56"/><path d="M29 1s-3-1-6 4l-5 10h2l1-4v5s15 5 21-1v-1l1 1h1l-3-4c-2-1-2-4-2-5l-2-4c-1-1-4-3-8-1z" fill="#2F2E41"/><path d="M19 109l1 6 4-1 1-5h-6z" fill="#FFB9B9"/><path d="M25 112l-6 1 1 5-1 6s-3 6 2 6c5-1 4-3 4-3l2-2-1-4-1-9z" fill="#2F2E41"/><path d="M43 109l-1 6-4-1-1-5h6z" fill="#FFB9B9"/><path d="M37 112l6 1-1 5 1 6s3 6-2 6c-5-1-4-3-4-3l-2-2 1-4 1-9z" fill="#2F2E41"/><path d="M31 17a6 6 0 100-12 6 6 0 000 12z" fill="#FFB9B9"/><path d="M27 14l1 10 7-1s-2-6-1-8l-7-1z" fill="#FFB9B9"/><path d="M31 22l3-2 3 2 6 2-2 22s4 14 3 21 9 41 1 43c-7 1-13 3-13 0l-1-43s-1 43-4 44c-3 0-17 2-16-1s8-58 12-62v-2l-4-22 8-4 4 2z" fill="#2F2E41"/><path d="M15 54v11s-3 11 2 11c4 0 1-11 1-11l2-10-5-1zM55 43l7 8s9 6 6 9-8-7-8-7l-8-7 3-3z" fill="#FFB9B9"/><path d="M23 48l18-1v-1H23v2z" fill="#D0CDE1"/><path d="M27 48a2 2 0 100-3 2 2 0 000 3zM21 25l-2-1s-2 1-2 4c-1 3-8 26-4 27l8 1 2-20-2-11zM37 26l6-2s2 0 2 3l5 11s12 8 11 9c-4 0-5 6-5 6L44 42l-7-16zM23 12l4-4c2 0 2-3 2-3s4 5 7 6c3 0 0-6 0-6l-5-2-4 1-4 2v6z" fill="#2F2E41"/><path d="M25 11l1-1-1-1-1 1 1 1z" fill="#FFB9B9"/></g><defs><clipPath id="clip0"><path fill="#fff" transform="translate(1)" d="M0 0h222v130H0z"/></clipPath></defs></svg>