<svg width="170" height="130" fill="none" xmlns="http://www.w3.org/2000/svg"><g clip-path="url(#clip0)"><path opacity=".1" d="M166 30c-1-4-4-7-6-9l-94-1 77-9-15-3c-8-5-17-8-28-8-9 0-17 2-24 7-6-3-13-4-20-4-21 0-38 12-42 28l152-1zM170 43c0-4-1-9-3-13L5 45c-1 2-3 5-3 8l50 6-52 5c2 18 20 32 43 32 11 0 22-3 29-9 8 6 18 9 30 9 17 0 31-8 38-20 14-3 25-13 28-24l-63-8h65v-1zM75 130c24 0 44-1 44-2s-20-2-44-2-43 1-43 2 19 2 43 2z" fill="#00BAFC"/><path d="M101 125v1H66v-1a11 11 0 001-21h34a11 11 0 000 21z" fill="#C8CAD7"/><path opacity=".1" d="M101 104a11 11 0 00-6 7H73a11 11 0 00-6-7h34z" fill="#000"/><path d="M27 98v6c0 4 2 7 6 7h102c3 0 6-3 6-7v-6H27z" fill="#C8CAD7"/><path opacity=".1" d="M101 125v1H66v-1l3-2h30l2 2z" fill="#000"/><path d="M111 124H56l-1 1v1l1 1h55l1-1v-1l-1-1z" fill="#C8CAD7"/><path d="M141 26a6 6 0 00-6-6H33a6 6 0 00-6 6v73h114V26z" fill="#474157"/><path d="M137 28v63a3 3 0 01-1 3H33a3 3 0 01-3-3V28a3 3 0 013-2h101a3 3 0 013 2z" fill="#4C4C78"/><path d="M84 24a1 1 0 100-3 1 1 0 000 3zM84 108a3 3 0 100-7 3 3 0 000 7zM53 27v67H33a3 3 0 01-3-3V27h23z" fill="#fff"/><path d="M55 28v6H30v-6h25z" fill="#4C4C78"/><path d="M137 28H30a3 3 0 013-2h101a3 3 0 013 2z" fill="#C8CAD7"/><path d="M33 28a1 1 0 100-2 1 1 0 000 2z" fill="#EDEDF4"/><path d="M35 28a1 1 0 100-2 1 1 0 000 2z" fill="#EDEDF4"/><path d="M37 28a1 1 0 100-2 1 1 0 000 2z" fill="#EDEDF4"/><path d="M49 31H34v1h15v-1z" fill="#00BAFC"/><path opacity=".5" d="M49 38H34v1h15v-1zM49 42H34v2h15v-2zM49 47H34v2h15v-2zM49 52H34v1h15v-1zM49 57H34v1h15v-1zM49 62H34v1h15v-1zM49 66H34v2h15v-2z" fill="#00BAFC"/><path opacity=".5" d="M132 36H65h67zM132 41H65h67zM132 46H65v1h67v-1zM132 52H65h67zM132 57H65h67z" fill="#DCE0ED"/><path opacity=".5" d="M132 57H65V47l6 3 6 1 6-2 7-5 3-2 3-1h2l4 2 5 4h5l3-1 7-6 3-1 4 1 3 1v16z" fill="#00BAFC"/><path d="M77 51c-6 0-12-4-12-4s9 5 16 3l7-5 6-4c3 0 6 0 8 2s6 5 10 4l6-4c4-3 8-6 14-2v1c-6-5-10-2-14 1-2 2-3 4-6 4-4 1-8-2-10-3-2-2-5-3-8-2-3 0-4 2-6 4l-7 4-4 1z" fill="#00BAFC"/><path d="M97 43a2 2 0 100-3 2 2 0 000 3z" fill="#00BAFC"/><path d="M56 77l-4-1v-1l1-2a1956 1956 0 011-2v-1-1h-1l1-1-2-1-1-1h-1v-1l-2 1h-1-1-1v2l1 1a4 4 0 000 4l2 2a2 2 0 01-1 1l-3 1s-2 0-3 3v3c-1 2-1 6 1 6h2l-1 7v1l-1 3-1 7v6l-1 11a1 1 0 00-1 0l-1 2-2 1a1 1 0 00-1 1h4l4-1a1 1 0 001 0l-1-1v-1l1-4 1-8s2-9 4-10l1 4 1 6v8l-1 3v4h4a1 1 0 000-1l-1-2 1-4a18 18 0 001-8l-1-5v-3l1-4v-4l-1-5a194 194 0 001-2c2 0 2-6 2-6v-2s1-3-1-5zm-15 48z" fill="url(#paint0_linear)"/><path d="M54 113v8l-1 4h-3l1-4v-8l-1-5-1-5c-2 1-4 10-4 10l-1 8-1 4h-1l-2-1 1-11v-6l1-7 1-3 1-1h10l1 1v4l-1 4v8z" fill="#65617D"/><path d="M54 128h-4v-1-1-2h2l1 1 1 2a1 1 0 010 1z" fill="#A27772"/><path opacity=".1" d="M54 128h-4v-1h4a1 1 0 010 1zM45 113l-1 8-1 4h-1l2-13c1-6 4-10 4-10l1 1c-2 1-4 10-4 10z" fill="#000"/><path d="M53 76l-1 2-2 4-2-1s-4-4-2-4l1-1 1-1-1-2 5-1-1 2 1 2h1z" fill="#FBBEBE"/><path opacity=".1" d="M52 72l-1 2a4 4 0 01-3 1l-1-2 5-1z" fill="#000"/><path d="M52 71a4 4 0 11-7 0 4 4 0 017 0z" fill="#FBBEBE"/><path opacity=".1" d="M53 76l-1 2-2 4-2-1s-4-4-2-4l1-1 1 4h1l3-4h1zM55 97l-6 1-4-1h-2l1-1h10l1 1z" fill="#000"/><path d="M48 80s-2-3-1-4l-3 1s-2 0-3 3v4c-1 1-1 5 1 5h2l-1 7c-1 1 2 1 2 1h10l-1-5-1-5 4-5s1-3-2-4l-3-2-3 4h-1z" fill="#FF748E"/><path opacity=".1" d="M44 81v1l1 3h-1v-1-3z" fill="#000"/><path d="M49 90l-4-2-1-3 2 1 3 2v2z" fill="#FBBEBE"/><path opacity=".1" d="M49 90l-4-2-1-3 2 1 3 2v2z" fill="#000"/><path d="M53 85v2h-1l-4 1-1 1-1-3 1-1h4l2 1v-1z" fill="#FBBEBE"/><path opacity=".1" d="M56 81l1 1v2s-1 6-3 7l-5-1v-2l3-1 1-5s-1-3 1-3 2 2 2 2z" fill="#000"/><path d="M56 81l1 1v2s-1 6-3 7l-5-1v-2l3-1 1-5s-1-3 1-3 2 2 2 2z" fill="#FF748E"/><path opacity=".1" d="M51 73v-1h-1-1v-1-1l-1-1h-1a1 1 0 01-1 1 1 1 0 010-1 4 4 0 115 5v-1z" fill="#000"/><path d="M46 70a1 1 0 010-1l-1-1v-2h6l1 1 1 1v1h1v1a40 40 0 010 1v1l-1 1-1 2h-1v-1-1-1h-1-1v-2-1h-2a1 1 0 01-1 1z" fill="#7C5C5C"/><path opacity=".1" d="M47 81l1 4-1-4zM51 80s-2 2-1 5l1-5zM52 93l2 1-2-1zM47 85v4h-3v-4h3z" fill="#000"/><path opacity=".1" d="M47 89l-1-3 1-1v4z" fill="#000"/><path d="M47 85v4h-3l-1-4h4z" fill="#FF748E"/><path d="M44 127a1 1 0 01-1 0l-4 1h-4a1 1 0 011-1l2-1 2-2 1 1h2l1 1v1z" fill="#A27772"/><path opacity=".1" d="M44 127a1 1 0 01-1 0l-4 1h-4l1-1h4l4-1v1z" fill="#000"/><g opacity=".1" fill="#000"><path opacity=".1" d="M53 69v-1 1zM51 72v0h-1-1v-1-1-1h-2a1 1 0 01-1 0l-1-1v-1a1 1 0 000 1l1 1a1 1 0 000 1 1 1 0 001-1h2v3h2zM54 71v1a360 360 0 00-1 1l1-1v-1zM51 75h1-1z"/></g><path opacity=".1" d="M39 125h2-2zM51 125h2-2zM54 109h-1 1zM54 112l-1 1s0 1 0 0l1-1zM54 113v2-2z" fill="#000"/><g opacity=".5" fill="#DCE0ED"><path opacity=".5" d="M81 69H71v2h10v-2zM104 69H94v2h10v-2zM126 69h-10v2h10v-2z"/></g><path opacity=".1" d="M143 121l4-1-4-1-4 1 4 1zM18 129h4l-4-1-4 1h4z" fill="#00BAFC"/><path d="M134 128l6-1-6-1-6 1 6 1z" fill="#00BAFC"/><path d="M137 126v-1-1h-1l-1 1a2 2 0 000-2h-1l-1 3v-1-1l-1-1-1 1v1l1 1h1v1h2l2-1zM18 118s1 2-1 3c-1 2-2 3-1 4 0 0 1-3 3-3l-1-4z" fill="#00BAFC"/><path opacity=".1" d="M18 118v1l1 3-3 3s1-3 3-3l-1-4z" fill="#000"/><path d="M19 120v0c0-1 0 0 0 0s0-1 0 0zM20 120l-1 1 1-1z" fill="#FFD037"/><path d="M13 118l1 3 2 4s-2-3-4-3l1-4z" fill="#00BAFC"/><path opacity=".1" d="M13 118v1l-1 3c2 0 3 2 4 3 0 0-2-3-4-3l1-4z" fill="#000"/><path d="M12 120v0c0-1 0 0 0 0s0-1 0 0zM11 120l1 1v-1h-1z" fill="#FFD037"/><path d="M12 125l3-1h4c0 1 3 4 1 4l-7-1-1-2z" fill="#A8A8A8"/><path opacity=".2" d="M20 128l-7-1-1-2 1 2 7 1 1-1-1 1z" fill="#000"/><path d="M70 83c0-3 3-5 6-5v-1a7 7 0 00-5 12l1-1a6 6 0 01-2-5z" fill="#00BAFC"/><path opacity=".5" d="M76 77v1a6 6 0 11-4 10l-1 1a7 7 0 105-12zM122 78c3 0 5 2 5 5h1a7 7 0 00-12-4l1 1a6 6 0 015-2z" fill="#00BAFC"/><path d="M128 84h-1a6 6 0 11-10-4l-1-1a7 7 0 1012 5z" fill="#00BAFC"/><path opacity=".5" d="M101 77v1c2 1 3 3 3 5a6 6 0 11-7-5l-1-1a7 7 0 1010 6c0-3-2-5-5-6z" fill="#00BAFC"/><path d="M99 78h2v-1l-2-1-3 1 1 1h2z" fill="#00BAFC"/></g><defs><linearGradient id="paint0_linear" x1="46.1" y1="128.6" x2="46.1" y2="65.4" gradientUnits="userSpaceOnUse"><stop stop-color="gray" stop-opacity=".3"/><stop offset=".5" stop-color="gray" stop-opacity=".1"/><stop offset="1" stop-color="gray" stop-opacity=".1"/></linearGradient><clipPath id="clip0"><path fill="#fff" d="M0 0h169v130H0z"/></clipPath></defs></svg>