<svg width="59" height="20" fill="none" xmlns="http://www.w3.org/2000/svg"><g clip-path="url(#clip0)"><path d="M0 20V0h7l2 1 2 1a6 6 0 012 4 6 6 0 01-2 4l-2 2H3v8H0zM7 9h1a3 3 0 002-2 3 3 0 00-1-3 3 3 0 00-2-1H3v6h4zM15 6v14h3V6h-3z" fill="#191919"/><path d="M19 2a2 2 0 01-1 1 2 2 0 01-1 1V0a2 2 0 011 1 2 2 0 011 1z" fill="#35AF39"/><path d="M17 0v4a2 2 0 01-2-1 2 2 0 010-1 2 2 0 010-1 2 2 0 012-1z" fill="#00BAFC"/><path d="M25 13l-5-7h4l3 5 3-5h3l-4 7 4 7h-3l-3-5-3 5h-4l5-7zM47 16l-3 3-3 1-3-1a6 6 0 01-4-3v-3a8 8 0 012-5 7 7 0 015-2h2a6 6 0 014 4v4H37v1l1 1 1 1h4l1-2 3 1zm-3-5v-1l-1-1a4 4 0 00-3-1l-2 1-1 2h7zM49 6h3v2l1-1h1l1-1h3l-1 3h-3a3 3 0 00-1 2l-1 2v7h-3V6z" fill="#191919"/></g><defs><clipPath id="clip0"><path fill="#fff" d="M0 0h58v20H0z"/></clipPath></defs></svg>