<svg width="178" height="130" fill="none" xmlns="http://www.w3.org/2000/svg"><g clip-path="url(#clip0)"><path opacity=".1" d="M104 18c-10 0-20-4-30-7-9-4-19-8-29-10-6-1-14-2-19 2-5 3-7 9-8 15 0 4-1 8 1 12l5 7c5 9 2 20-4 28l-8 13c-2 4-3 9-2 13 2 5 7 8 11 10 10 5 21 6 32 7a753 753 0 00101-2c5-1 10-2 14-5 5-4 6-10 3-15-6-8-20-10-23-18-2-5 0-10 3-15 6-9 16-17 17-28 0-7-5-15-13-18-8-4-19-3-25 3s-17 8-26 8z" fill="#00BAFC"/><g opacity=".9"><path opacity=".9" d="M116 40h-1v12h1V40zM68 31h-1v3l1 1v-4zM68 38h-1v6l1 1v-7zM68 47h-1v7h1v-7z" fill="#3A3768"/><path opacity=".9" d="M109 18H74c-3 0-6 3-6 6v85c0 3 3 6 6 6h35c4 0 7-3 7-6V24c0-3-3-6-7-6z" fill="#3A3768"/><path opacity=".9" d="M93 21h-5l-1 1h7l-1-1zM96 22a1 1 0 100-1 1 1 0 000 1z" fill="#E6E8EC"/></g><path opacity=".1" d="M39 121c18 0 32-2 32-4 0-1-14-3-32-3s-32 2-32 3c0 2 14 4 32 4zM111 130c8 0 15-1 15-2l-15-1-15 1c0 1 6 2 15 2zM162 122l15-1c0-1-6-2-15-2-8 0-15 1-15 2l15 1z" fill="#00BAFC"/><path d="M109 21h-6a3 3 0 01-3 3H83a3 3 0 01-3-3h-5a4 4 0 00-4 3v85a4 4 0 004 4h34a4 4 0 004-4V24a4 4 0 00-4-3zM132 14s-13-1-12 9l1 2h3l2-1s4-2 5-8l1-2-2 1v0l-1 1v5l-1-5-1 1v6l-1-6-1 1v5l-1-4-1 1v1l-2 3 1-3-2 1s1-2 3-2l1-1h-3l3-1 2-1h-4 4l2-1h-4 4l1-1h-2 3l2-1zM118 10s-6-1-5 4v1l1-1h1l3-3v-1h-1v3l-1-2v0l-1 1v0l-1 1v0l-1 1 1-1h-1l1-1h-1 2v-1h-1 2v-1h-1 3zM7 111c4 0 7-1 7-2l-7-1-6 1c0 1 2 2 6 2z" fill="#00BAFC"/><path d="M10 108v-1-1H9l-1 1a2 2 0 000-2H7l-1 3v-2-1H5l-1 1v1l1 1 1 1h2l2-1zM135 94s1 2-1 5c-2 2-4 5-3 6 0 0 3-5 5-5 3 0 1-3-1-6z" fill="#00BAFC"/><path opacity=".1" d="M135 94v1c2 3 4 5 1 5-2 0-5 4-5 5 0 0 3-5 5-5 3 0 1-3-1-6z" fill="#000"/><path d="M137 96v0zM138 97l-1 1 1-1s1 0 0 0z" fill="#FFD037"/><path d="M127 94s-1 2 1 5c2 2 4 5 3 6 0 0-3-5-6-5-2 0-1-3 2-6z" fill="#00BAFC"/><path opacity=".1" d="M127 94v1c-3 3-4 5-2 5 3 0 5 4 6 5 0 0-3-5-6-5-2 0-1-3 2-6z" fill="#000"/><path d="M125 96v0zM124 97l1 1-1-1h-1 1z" fill="#FFD037"/><path d="M125 105l5-1c1-1 6-2 6 0 1 1 6 6 2 7l-12-2-1-4z" fill="#A8A8A8"/><path opacity=".2" d="M138 110l-11-1-2-4 1 4 12 2 2-2-2 1z" fill="#000"/><path opacity=".3" d="M107 79H95v12h12V79zM89 62H76v13h13V62zM90 95H78v13h12V95z" fill="#3A3768"/><path d="M87 31H75v13h12V31zM105 74l-9 9 8 9 9-9-8-9zM107 46H95v13h12V46zM91 60H79v13h12V60z" fill="#fff"/><path d="M157 118h3a7 7 0 01-1-2l-1 1h-1v1zM171 117l1-1-1-2v1h-1l1 1v1z" fill="#00BAFC"/><path d="M160 120h-3l-1 1h-1a15 15 0 01-2 0 1 1 0 010-1v-1h1l2-1v-1h1l1 1a1 1 0 001 0h1v-1 3z" fill="#514E7F"/><path d="M160 120h-3l-1 1h-1a15 15 0 01-2 0 1 1 0 010-1h4l1-1h2v1z" fill="#464353"/><path d="M174 117l-1 1-1 1-1 1-1 1a4 4 0 01-2 0v-1-1h1v-1-1-1h1a1 1 0 011 0h1a1 1 0 000-1l1 1 1 1z" fill="#514E7F"/><path d="M174 117l-1 1-1 1-1 1-1 1a4 4 0 01-2 0v-1h3v-1h1a8 8 0 010-2h1v-1l1 1z" fill="#464353"/><path d="M150 82l1 1 1 3h2l1-1 1-1-2-3-1-1h-1l-1 1-1 1z" fill="#A1616A"/><path d="M154 82h-1v2l-1 2-1 1v1l1 1v1l1 2 3 7 7-2-3-4-3-6-1-3v-2h-1-1z" fill="#514E7F"/><path d="M150 82a3 3 0 100-5 3 3 0 000 5z" fill="#A1616A"/><path d="M153 81a1 1 0 011 0h3v1l1-1 1 1 1 1v3l1 1v3h1v2l1 1 1 2h-4-1v-2l-1-1v-1l-1-1h-1a1 1 0 010-1v-1l-2-3v-2a1 1 0 010-1v-1h-1zM150 84v2l1 1v1l1 2v1h2l-1-2-1-4-1-2a1 1 0 00-1 1z" fill="#464353"/><path d="M152 87l1 2h2v-1-2l-1-1v-1-1l-1-1-1 1v4z" fill="#00BAFC"/><path d="M156 99l-1 2v3l-1 1v3l1 1v3l1 5h3a1 1 0 001 0l-1-2v-1-1-1-1l-1-2v-1-2-1l1-2 1-2v1h1v1l1 3v1h1a2 2 0 000 1l1 1v1h1l2 2 1 1v1l1 1v1l3-1v-1l-1-1-1-2-3-4h-1v-1-1-1l-1-1v-1-1-2-1l-1-4c-1-1-2 2-3 2h-1l-2 1-2 1v1zM148 77a2 2 0 012-1h1l1 1h1v2h-1v1l-1-1v-1h-1a1 1 0 01-1 0h-1v1h-1l1-2z" fill="#464353"/><path d="M149 84v1h2v1h2l1-5v-1h-1l-1 1-1 2h-1l-1 1z" fill="#00BAFC"/><path d="M163 87h-12v12h12V87z" fill="#fff"/><path d="M163 93v1l-1 1h1v1a1 1 0 001 0h1a1 1 0 000-1 5 5 0 000-2h-1-1z" fill="#A1616A"/><path d="M163 93v-1-1-1h-1v-1-1-1l-1-1h-1v-1l-1-1v-1h2l2 1 1 1 1 1v8l-2-1" fill="#464353"/><path d="M150 91a1 1 0 000 1v1h1v-1-1h-1z" fill="#A1616A"/><path opacity=".1" d="M153 80v1l-1 2M154 80a1 1 0 00-1 1v1" fill="#000"/><path d="M50 91l-1 3h1l-1 2-3 4v1h-2l-2 1a1 1 0 001 1v1l3-1 2-2 1-2a15 15 0 003-3v-1l1-1 1-3-2-2h-1v1h-1v1" fill="#FBBEBE"/><path opacity=".1" d="M50 91l-1 3h1l-1 2-3 4v1h-2l-2 1a1 1 0 001 1v1l3-1 2-2 1-2a15 15 0 003-3v-1l1-1 1-3-2-2h-1v1h-1v1" fill="#000"/><path d="M28 95v2a13 13 0 003 3l1 2v2l1 1h1v-1h1v-1a3 3 0 00-1-1l-1-1a42 42 0 01-4-8v-1-2-1h-2a2 2 0 00-1 1l1 1 1 4z" fill="#A1616A"/><path opacity=".1" d="M28 95v2a13 13 0 003 3l1 2v2l1 1h1v-1h1v-1a3 3 0 00-1-1l-1-1a42 42 0 01-4-8v-1-2-1h-2a2 2 0 00-1 1l1 1 1 4z" fill="#000"/><path d="M52 114l-2 1 1 1h2a24 24 0 004 0v-1a1 1 0 000-1h-1l-1-1h-1l-2 1zM55 117l-2 1 1 1h4a9 9 0 012 0v-1-1l-1-1h-2l-2 1z" fill="#3F3D56"/><path d="M53 102l-1 2 1 1v4l1 3-1 1 2 2h2v-3-3-2l1-3a55 55 0 011-5v-1l1-3-2 1-1 1-1 1a104 104 0 00-3 4z" fill="#464353"/><path opacity=".1" d="M53 102l-1 2 1 1v4l1 3-1 1 2 2h2v-3-3-2l1-3a55 55 0 011-5v-1l1-3-2 1-1 1-1 1a104 104 0 00-3 4z" fill="#000"/><path d="M56 97l1 1v1l-1 1-1 3-1 2 1 2 1 1v7l1 1 2 1h1a1 1 0 000-1v-1l-1-2v-1-1-1-1-2l-1-1v-1a1 1 0 000-1h1l3-3v-1l2-1v-1-2-1h-1-1l-2-1-3 2-1 1z" fill="#464353"/><path d="M20 117h1v-1h1v1h3v-1h-1v-2h-1v-1h-2-1v4z" fill="#514E7F"/><path opacity=".1" d="M20 117h1v-1h1v1h3v-1h-1v-2h-1v-1h-2-1v4z" fill="#000"/><path d="M21 96l-1 1 1 1 1 2 1 2v3l-1 1a21 21 0 000 5h1v1h-1 1v1h-1-1v-2a128 128 0 00-1-11l-1-1-1-4h1l2 1z" fill="#464353"/><path opacity=".1" d="M21 96l-1 1 1 1 1 2 1 2v3l-1 1a21 21 0 000 5h1v1h-1 1v1h-1-1v-2a128 128 0 00-1-11l-1-1-1-4h1l2 1z" fill="#000"/><path d="M16 93v-1l-1 1h-1a3 3 0 000 4l1 1v1a170 170 0 004 5v1 3 6h3v-1a1 1 0 010-1c-1 0-1 0 0 0l-1-2 1-2v-3-2-1h-1l-1-4v-1-1l-1-1v-1l-3-1z" fill="#464353"/><path d="M19 117l1 1v-1h1v1h3v-1h-1v-2h-1v-1h-2-1v3z" fill="#514E7F"/><path d="M45 99H33v12h12V99z" fill="#fff"/><path d="M30 88a2 2 0 100-5 2 2 0 000 5z" fill="#A1616A"/><path d="M28 87h-1l-3 1h-1v2l2 2h3v-1a14 14 0 001-2l1-1v-1h-1l-1-1v1z" fill="#A1616A"/><path d="M28 92h-1l-2-1-1-1v-1-1h-1l-1 1v1h-1l-1 1-1 1h-2-1v1a5 5 0 003 3l1 1v-1h2l1-1h2l2-1h1v-2z" fill="#514E7F"/><path d="M25 88h1a2 2 0 011 1l-1-1h-2v1h-1l1-1h1z" fill="#514E7F"/><path d="M26 95l1 2a13 13 0 002 4l2 2v2h2v-1h1a3 3 0 00-1-2h-1l-1-1a41 41 0 01-3-8v-1-2l-1-1h-1a2 2 0 00-1 1v2l1 3z" fill="#A1616A"/><path d="M34 84h-1v-1h-1v-1h-4v1l-1 1v2l-2 1 2 2a2 2 0 010 2v1h1v1l1 1h1v-1l1-1v-1l-1-2v-1-1h1v-2h2l1-1z" fill="#464353"/><path d="M48 88a3 3 0 100-6 3 3 0 000 6z" fill="#FBBEBE"/><path d="M50 85a3 3 0 002 1v1l-2 4a2 2 0 000-2l-1-1-1-1h-1l2-2h1z" fill="#FBBEBE"/><path d="M50 88v1h-1v2a1 1 0 010 1h2l1 1a6 6 0 004 4h2l1-1 1 1 2-1 1-1h1l-1-1v-1l-2-2a13 13 0 00-2-1l-1-1-1-1-1-1h-1l-1-1h-2l-1-1v2l-1 1z" fill="#3F3D56"/><path d="M51 92l-1 3h1l-1 2-3 4v1h-2l-2 1a1 1 0 001 1v1l3-1 2-2 1-1a15 15 0 003-4v-1l1-1 1-3-2-2h-1v1h-1v1" fill="#FBBEBE"/><path d="M52 88h-1l-1 2 1 1v2l1-1h3l-1-1 1-1a1 1 0 000-2h-2-1" fill="#3F3D56"/><path d="M44 82l1-1 1-1 2 1a5 5 0 002 0v2l1 1v2l-1-1h-1l-2-1a2 2 0 00-1 0l-1 1-2-2a1 1 0 001-1z" fill="#464353"/><path d="M105 50l-1 1 1-1h-1a1 1 0 00-3 1 4 4 0 01-3-1 1 1 0 001 2h-1a1 1 0 001 1 2 2 0 01-1 0 1 1 0 002 1 3 3 0 01-2 1l2 1c3 0 4-3 4-5l1-1zM99 82l1 1 3 4 1-1h1l1-2v-3l-2-3-5 4zm7-1v2l-1 1v1l-1-1-1 1-3-3 4-3 2 2z" fill="#00BAFC"/><path d="M103 81l1-1 1 2-2-1zm-1 1v-1l2 2h-1l-1-1zM41 101h-6v6h3v-4l2-1v1h-1v1h1v1h-1v2h2v-6zM86 64a1 1 0 011 1v3a1 1 0 01-1 1h-2a1 1 0 01-1-1v-3a1 1 0 011-1h2zm0 0h-2a2 2 0 00-2 1v3a2 2 0 002 2h2a2 2 0 002-2v-3a2 2 0 00-2-1z" fill="#00BAFC"/><path d="M87 65zm-2 1a1 1 0 110 2 1 1 0 010-2zm0-1a1 1 0 100 3 1 1 0 000-3zM161 91l-1-1h-5l-2 1a22 22 0 000 3l2 2a59 59 0 005 0l1-2a24 24 0 000-3zm-5 3v-3l3 2-3 1zM81 34a3 3 0 00-1 7v-1a1300 1300 0 001-3v1a1 1 0 000 1l1-2-1-1a2 2 0 00-2 1l1 1v1h-1v-2c0-1 0-2 2-2l2 2-2 2-1 1v1a3 3 0 003-1 3 3 0 00-2-6z" fill="#00BAFC"/><path d="M116 128v-1-2-1-2-3l-2-5v-1-5-4l-1-1v-1h2l-1-4-1-2v-3l1-1 1-1v-2-1-1-1l-1-1v-1l-1-2h-1v2l1 1v2l-1 1h-1c1 0 0 0 0 0l-1-1 1-1v-1-2l-1-1v-1h-1l-2 1h-1v2a2 2 0 001 2v2l-2-1-1 1h-1-2l-1-1h-1l-1-1-2-2v-1-1s-1-2-2-1v2l1 1v2l2 3 6 3v1l-1 1v5l-1 2v2h3v1a68 68 0 001 8v5l1 1v6 1c1 0 1 0 0 0v1l1 1a1 1 0 01-1 0v1l1 1h2v-1-2-1h0v-1-1-1-1-3-2-2-1-4l1 2v2l1 1v2l1 1v5l1 1 1 1-1 1v1h1-1v1 1h3z" fill="url(#paint0_linear)"/><path d="M107 129l-1-1v-1h1v-1h2v3h-2zM114 128h-2v-1a1 1 0 011 0v-1h3v2h-2z" fill="#2D293D"/><path opacity=".1" d="M109 126v1h-2v-1h2zM116 126h-3 3z" fill="#000"/><path d="M116 124v2h-3v-1-1l-1-1v-2-1-1-2l-1-1v-1-1l-1-1v-2l-1-2v16s1 0 0 0v1l-2 1-1-1v-1c1 0 1 0 0 0v-1-1-2-2-1l-1-1v-5l-1-5a75 75 0 010-5l9-1v3l1 4-1 3 1 2v1s2 4 1 5l1 3v2z" fill="#464353"/><path opacity=".1" d="M111 114h0zM113 111v0zM113 108l-3 2 3-2zM108 115l-2 1 2-1zM108 123s-2 0-1 1h1v-1z" fill="#000"/><g opacity=".1" fill="#000"><path opacity=".1" d="M106 124v0zM109 124v-1 1zM109 114v0zM114 113zM109 121zM109 125v1h-2a5 5 0 01-1-1v1l1 1 2-1v-1zM106 121v-2-2l-1-1v-4l-1-6v-3-1 1a74 74 0 001 9v5l1 1v3zM113 126v0h3-3zM116 124zM113 124v-1l-1-2v2l1 1zM112 120a11 11 0 010 1v-2-1-2h-1v-2l-1-1v-3l-1-1v1-1l1 2v2l1 1v2l1 1v3z"/></g><path d="M114 84v1h-1l-1-1v-2l2 2z" fill="#FFCDD3"/><path opacity=".1" d="M114 85h-1a1 1 0 011 0z" fill="#000"/><path d="M114 85l-1 1v-1h1z" fill="#DCE6F2"/><path d="M97 84l-2 1v-1l-1-1c-1-1 1-2 1-2l1 1v1a4 4 0 011 1z" fill="#FFCDD3"/><path opacity=".1" d="M97 84l-2 1v-1h2z" fill="#000"/><path d="M97 84l-2 1v-1h2z" fill="#DCE6F2"/><path d="M111 89h-5l1-1v-2-1s4-2 3 0v2l1 2z" fill="#FFCDD3"/><path opacity=".1" d="M110 85v1h-2-1v-1s4-2 3 0z" fill="#000"/><path d="M108 87a2 2 0 100-5 2 2 0 000 5z" fill="#FFCDD3"/><path opacity=".1" d="M111 89h-5l1-1 1-1a2 2 0 012 0l1 2zM114 85l-1 1a1 1 0 011-1zM97 84l-2 1 2-1zM113 103a35 35 0 01-9 0v-1l9-1v2z" fill="#000"/><path d="M115 102l-8 1h-6l1-2v-2-1-2l1-2v-2l-6-3-2-3v-1l2-1 1 2 1 1h1l1 1h3l1-1 2 1 1-1h2l1 1h1v-1l1 1v-1-1c0-2 2 0 2 0v5l-1 1-1 1v3l1 2 1 4z" fill="#3F3D56"/><path opacity=".1" d="M105 89h-1v-1l1 1zM101 88h-2l1-1 1 1z" fill="#000"/><path d="M96 85zM96 86v-1 1zM96 86zM96 86zM115 86zM115 87v-1 1zM115 87z" fill="#575988"/><path opacity=".1" d="M105 95s4 5 7 2c0 0-5 1-7-2zM102 97l3 1v1h-3v-2z" fill="#000"/><path d="M102 97l3 1v1l-3-1v-1z" fill="#3F3D56"/><path opacity=".1" d="M104 92l1 2 1 1-2-3zM103 89l1 2-1-2zM102 89l2 2-2-2zM114 88l1 1-1-1z" fill="#000"/><path d="M108 86v1h2v-1h1v-1-2l-1-1v-1h-1l-2 1h-1v3h1l1 1z" fill="#2D293D"/><path opacity=".1" d="M110 86a5 5 0 01-2 0l-1-1h-1v-2 2h1l1 1v1h2v-1zM107 88h3-3zM113 87h2-2z" fill="#000"/></g><defs><linearGradient id="paint0_linear" x1="105" y1="129" x2="105" y2="80.5" gradientUnits="userSpaceOnUse"><stop stop-color="gray" stop-opacity=".3"/><stop offset=".5" stop-color="gray" stop-opacity=".1"/><stop offset="1" stop-color="gray" stop-opacity=".1"/></linearGradient><clipPath id="clip0"><path fill="#fff" transform="translate(1)" d="M0 0h177v130H0z"/></clipPath></defs></svg>