<svg width="300" height="172" fill="none" xmlns="http://www.w3.org/2000/svg"><g clip-path="url(#clip0)"><path opacity=".1" d="M180 124l19-6a877 877 0 0197-24c-4-8-9-14-16-19l1-5c0-26-21-47-47-47-8 0-15 2-22 6-18-12-42-19-68-19-37 0-69 14-88 36l87 15 52 9c-60 2-120 3-180-1a48 48 0 00-7 60v3l4 1c22 5 43 8 65 11-16 10-36 12-54 16 9 7 21 12 34 12h198c21 0 38-15 38-34 4-5 6-11 7-17-40 4-80 1-120 3z" fill="#00BAFC"/><path opacity=".1" d="M300 113a47 47 0 00-20-38v-5c0-26-20-47-46-47-8 0-16 2-23 6-18-12-41-20-67-20-43 0-79 19-95 47h-3a47 47 0 00-39 73c1 23 23 42 50 42h197c22 0 39-15 39-33 5-8 7-16 7-25z" fill="#00BAFC"/><path d="M245 84h-3l-6-1h-2a3 3 0 00-2 0v3l1 1v1h-1a1 1 0 000 2l1 1-1 1-1 2h-1l1 2-1 1c-1 0-2 1-2 3l-3-6-1-1v-1l-1-2-1-1-1-1v-1a2 2 0 00-1-1v-1h-1v-1l1-1-1-2-1-2-1-2h-1l-1-1 1-1a1 1 0 00-1-2 1 1 0 01-1-1v-1-1a1 1 0 001 0l1 1 2 3v1h1v1l1 1h3l2-2 1-1v-1l1-1v-1l2-4 1-2 1-2a28 28 0 002-7l-1-1-1-1a2 2 0 00-1 0l-2 1v7l-1 2-3 4-1 1v-1 0l-2-1v-1-1l-1-2v-1l-1-1v-1l-1-2-1-1-4-1-2-1-1-2h-2v1l-1-1 1-1 2-2 1 1a3 3 0 001-2v-1a6 6 0 011-1v-1-1-1a3 3 0 00-1-2l-1-1-1-1a3 3 0 00-2-2l-1 1-1 1-1-1-1-1a2 2 0 00-2 0 2 2 0 00-1 1v2l-1 1-1 1 1 1a2 2 0 001 1 5 5 0 000 4v5l-1-1-3 1-2 1h-2l-2-1-1-2a279 279 0 01-5-6l1-1v-1h-1v-1l1-7 1-2 3-2c1-1 0-3-1-3 0-1-1-2-3-2l-1 1-1 3-1 2-1 4-1 3-1 3v1l-1 1-1 1 1 1v2l1 2 1 2 1 1 4 5a11 11 0 003 2l2 2h1l1 2v8l-2 5v2h-1l-1 1-1 2v1 1l-1 1h1v1h5l1-1h1a3 3 0 013 0 826 826 0 011 4v1a1 1 0 01-1 1 1 1 0 010 1l-1 1-2 3-1 1v1a543 543 0 01-3 8c0 3-3 5-3 8l1 2 2 1 7 2 3 1h4l2 1h1v1h2v1h1v1l-1 2a2429 2429 0 000 6h1l1-1 2-2 2-6 2-5-1-1-2-1-1-1h-1l-1-1h-2-1v-1a3 3 0 00-3 0l-2-1-3-2h-1l1-1 2-2c2-2 5-3 6-6l1-1 2-1 1 1a36 36 0 016 4l4 4 4 4 6-1 2-6 2-3 1-3 1-3 1-3v-5h4l1-1 1-1-1-3zm-38-44h-1 1z" fill="url(#paint0_linear)"/><path d="M208 56l-1 1-2 1h-3l-4-1 3-2v-1-1a18 18 0 010-4h2l4 1v3l1 2a1 1 0 010 1zM182 37l1-3 1-2 1-3 1-1 4 1v3l-3 3-1 2-1 7-1 1-1 1h-2-1v-3l1-3 1-3z" fill="#BE6F72"/><path d="M218 120l-2 4-2 7-2 1-1 1h-1l-1-1v-1-1a1762 1762 0 002-5l-1-2 1-1v-1l1-2 1-1 1-1h1l2 1 1 1v1zM246 88l-1 1h-3l-2 1-3-1-3-1-2-1v-1-1-1a3 3 0 012-1h2l6 1h2l1 1 1 3z" fill="#3F3D56"/><path d="M240 89v6l-1 3-1 3-1 2-2 4-2 5c-2 2-4 2-6 1l-4-4-4-4-3-2-3-2h-3l-1 1c-1 3-4 5-6 6l-2 2-1 1 1 1 3 1 2 1a3 3 0 013 1h3l1 1h1v1l1 1v1c0 2 0 4-2 5l-1 1a1 1 0 01-2-1l-2-1v-1h-1l-2-1h-4l-3-1-7-1-2-2-1-2c0-2 3-5 3-8l1-3a2279 2279 0 007-13v-1l1-2h2l3-1 7-2 7 1 1 1h1v1l1 1 1 2 1 1v1l1 1 3 6 2-3 1-1-1-1v-1l2-2 1-1-1-1a1 1 0 010-1l1-1v-1-1l1-1h2l4 2v2z" fill="#65617D"/><path opacity=".1" d="M246 88l-1 1h-1l1-2a1 1 0 000-1l-2-1-8-1-2 1h-1v-1a3 3 0 012-1h2l6 1h2l1 1 1 3zM218 120l-2 4-2 7-2 1-1 1h-1l-1-1v-1l1 1a2 2 0 002 0l1-3 1-2 1-1 2-6v-1-1l1 1v1zM214 116l-1 2-3 1h-1l-2-1h-1l-2-1-6-4h-1l1-3 1-1c2-2 3-5 6-6l2-2h3l-1 1c-1 3-4 5-6 6l-2 2-1 1 1 1 3 1 2 1a3 3 0 013 1h3l1 1h1z" fill="#000"/><path d="M190 80l-1 2-1 1v1 1l-1 1 1 1a5 5 0 005 0l2-1h3a1 1 0 001 0l1-1v-4l-2-5-1-3-2-2-2 3-1 4-1 1-1 1z" fill="#3F3D56"/><path opacity=".1" d="M200 85l-1 1a1 1 0 01-1 0h-3l-2 1a5 5 0 01-5 0l-1-1 1-1v-1-1l1-1 1-2 1-1 1-1 1-4a8 8 0 012-3l2 2 1 3 2 5v4zM207 53a5 5 0 01-6-3v-1h2l4 1v3z" fill="#000"/><path d="M206 53a5 5 0 100-10 5 5 0 000 10z" fill="#BE6F72"/><path opacity=".1" d="M220 87l-1 1-5-1-5 2h-8l-2 1 1-2h2l3-1 7-2 7 1 1 1z" fill="#000"/><path d="M203 57h-2l-1-1h-1l-2 1-1 3a80 80 0 00-1 8l1 10 1 4v2l1 2v4l3-1h3l2-1h3l5-1h5l1-1a28 28 0 01-7-6l-2-9c-2-2 0-5 0-7l-1-4v-2l-1-3h-1-1l-2 2h-2z" fill="#E3E8F4"/><path d="M207 56l1-2 2-1 1 2 2 1 4 1 1 2 1 1v2l-1 4-2 3-2 1v2a1 1 0 001 1v1a1 1 0 011 1l-1 1 1 1 1 1 1 2 1 1v1l1 1-1 1-2 2-4 2-1 1h-3-3l-1-3-1-7 1-7 1-5 2-4c0-3-2-5-1-7z" fill="#3F3D56"/><path d="M219 61v1l1 1v1l1 1v2l2 2v1l-1 1-1 3-1 3-1-1-1-1v-1l-2-3-1-2 1-5 2-3h1zM193 62v1a1 1 0 01-1 0h-1a1562 1562 0 01-5-4l-4-5-1-1-1-2-1-2v-1-1l-1-1 1-1h1v-1h5l1 1a8 8 0 00-1 2l2 3a278 278 0 004 4l2 2v6z" fill="#3F3D56"/><path d="M226 73l1-1v-1l2-4 1-2 1-2a28 28 0 002-7l-1-1-1-1a2 2 0 00-1 0l-2 2v6l-1 3-3 4-2 1v3l2 1 2-1z" fill="#BE6F72"/><path d="M206 40a2 2 0 012-1 3 3 0 012 2l1 1 1 1a3 3 0 011 2v2l-1 1v1a3 3 0 01-1 2h-1l-1-4-1-1h-1-1l-1 1a2 2 0 01-2-1h-1l-1-1a2 2 0 01-1-3h1v-2a2 2 0 011-2 2 2 0 012 1l1 1a2 2 0 002 0" fill="#3F3D56"/><path opacity=".1" d="M210 79a1 1 0 000 1l3-1h2c1-1-1-1-2-1l-3 1z" fill="#000"/><path d="M186 45l-1 2-2-1-2-1a1 1 0 00-1 1l-1 1-1-1 1-1h1v-1h5l1 1z" fill="#3F3D56"/><path opacity=".1" d="M186 45l-1 2-2-1-2-1a1 1 0 00-1 1l-1 1-1-1 1-1h1v-1h5l1 1zM205 95h1-3l-1-1h-2 3l2 1zM207 97h-2-1l-3-1h-1l1-1 3 1 3 1zM205 92l-3-1h-1 2l1 1h1z" fill="#000"/><path d="M223 69a5 5 0 003 5l-1 1-2 2h-3v-3l1-3 2-2zM200 54l-3 1h-3l-1 1a1 1 0 01-1 0v7l1 2v8l-2 5v2h-1l-1 2-1 1v1 1l-1 1 1 1h2l1-6a50 50 0 005-11l1-1v-2l1-3v-2-4l1-1 2-3h-1z" fill="#3F3D56"/><g opacity=".1" fill="#000"><path opacity=".1" d="M207 39zM213 45v1l-1 1v1a3 3 0 01-1 2h-1l-1-4-1-1h-1-1l-1 1a2 2 0 01-2 0l-1-1-1-1a2 2 0 01-1-1 2 2 0 000 2h1l1 1h1a2 2 0 002 1l1-1h2l1 1 1 4h1a3 3 0 001-2v-1l1-1v-2z"/></g><path d="M196 66v2a50 50 0 01-35 42l-1-4 10-4a49 49 0 0022-31h-17v-5h21z" fill="#00BAFC"/><path opacity=".1" d="M163 109c15-6 22-16 26-24 5-9 5-16 5-17l1-2h1v2a50 50 0 01-34 42h-1l2-1z" fill="#fff"/><path d="M134 106l-1 4-4-1c-14-6-22-16-26-24-4-9-5-16-5-17v-2h21v4h-16l4 13a43 43 0 0027 23z" fill="#00BAFC"/><path opacity=".1" d="M131 109c-14-6-22-16-26-24-4-9-5-16-5-17v-2h-2v2a50 50 0 0035 42l-2-1z" fill="#fff"/><path d="M172 147v24h-50v-24l2-2a31 31 0 0020-29h6v2c1 6 4 21 20 27l2 2z" fill="#00BAFC"/><path opacity=".1" d="M172 147h-50v3h50v-3z" fill="#000"/><path opacity=".1" d="M127 145a31 31 0 0020-29h-3v2c-1 6-4 21-20 27l-2 2v24h3v-24l2-2z" fill="#fff"/><path opacity=".1" d="M115 66h4v4h-4v-4zM134 106l-1 4-4-1-4-7 9 4zM160 106l10-4-5 7-4 1-1-4zM179 66v4h-4v-4h4zM150 118h-6v-2h6v2z" fill="#000"/><path d="M115 58c1 33 15 60 32 60 18 0 32-27 32-60h-64z" fill="#00BAFC"/><path opacity=".1" d="M121 58h-6c1 33 15 60 32 60h3c-16-3-29-28-29-60z" fill="#fff"/><path d="M164 156h-34v9h34v-9z" fill="#3F3D56"/><path opacity=".1" d="M132 157h32v-1h-34v9h2v-8z" fill="#fff"/><path d="M98 90l-5-4 2-13h-1l1-16s2-10-2-10c-3 1-1 10-1 10l-1 6v9s0 6-2 7l-2 5-1-1v-1a6 6 0 00-2-9v-1c-1-1-4-3-7-3l-3 1v1l-2 3-1-1-2-3-6-7c-1-2-6-11-7-9-2 1 4 8 4 8l2 4 6 9 1 1c-2 1-3 1-3 3-1 2 1 4 2 6 1 3 2 8-1 11-2 3-5 4-9 5 2 2 4 2 6 2-1 3-4 3-6 4l5 2h4l3-2 1-3h6l3-1v-2-4 8l-2 2-1 1-1 2v2l-3 5-3 5c-2 5-4 5-4 5l-7-4-2-1-2-1v-2c0-3-2-3-2-3l-3 1h-5c-4 0-5 3-5 3v1h7v1l2 2 7 6 8 5c2 3 5 0 5 0 3 0 11-11 11-11a190 190 0 001 17v3s-4 12-3 13l-2 6v5h4l4 1 3 1 3-1c-1-2-5-3-5-3h-1v-1c1-1-2-2-2-2v-1c2 0 2-6 2-6l3-8v-4l1-1v-2-5l2-7s2-8 1-11c-1-2 1-4 1-4h-1l1-1 3 1h2l-1-7 2-9v-8zm-16-5h-1v-1h-1 2v1zm12 23zm-13 59h-1 1zm5-1h-1 1z" fill="url(#paint1_linear)"/><path d="M95 103l-3 8h1l-3 2 5 1v-11z" fill="#F86D70"/><path opacity=".1" d="M95 103l-3 8h-1l-1 2 5 1v-11z" fill="#000"/><path d="M90 108h5l2-15h-7v15z" fill="#F86D70"/><path opacity=".1" d="M90 108h5l2-15h-7v15z" fill="#000"/><path d="M81 97l1-1h2l9-2 3-1-2-5-4-3s-3 0-4-2a2 2 0 010-2c0-2-4 2-4 2v2l-1 1v4c-2 1 0 7 0 7z" fill="#FBBEBE"/><path opacity=".1" d="M82 85l4-2a2 2 0 010-2c0-2-4 2-4 2v2z" fill="#000"/><path d="M76 79a6 6 0 006 6 6 6 0 10-6-6z" fill="#FBBEBE"/><path d="M74 70v2c0 2-2 3-4 4s-4 1-4 3c-1 2 0 4 1 6 2 4 2 8 0 11s-6 5-9 6l6 2c-1 2-4 3-6 3l5 2h3c2 0 3-1 3-2l2-3h5l4-1v-1l1-8-2-3 1-7 2-6c2-1 3-4 2-5-1-3-9-6-10-3z" fill="#3F3D56"/><path d="M79 166l1 1 2 1h5s1-1-1-1h-1a7 7 0 01-1-1l-1-1-4 1z" fill="#FBBEBE"/><path opacity=".1" d="M80 167l2 1h5s1-1-1-1h-1 1l-2 1-3-1h-1z" fill="#000"/><path d="M76 168h3l4 1 4 1 2-1c0-2-4-3-4-3l1 1-2 1-3-1h-3l-2 1z" fill="#3F3D56"/><path d="M42 121h2a71 71 0 014 0c1 1 2-3 2-3h-6l-2 1v2z" fill="#FBBEBE"/><path opacity=".1" d="M42 121h2c-1-2 2-3 2-3h3-5l-2 1v2z" fill="#000"/><path d="M40 122l5-1h-1a1 1 0 01-1 0c0-2 3-3 3-3h6l1-1h-8c-4 0-5 3-5 3v2z" fill="#3F3D56"/><path d="M90 72l1 2h3v-1l1-15s1-11-2-10c-4 0-1 10-1 10l-1 6-1 8zM84 111l1 1 2 3h4l1-3v-2l-8 1z" fill="#FBBEBE"/><path opacity=".1" d="M84 111l1 1h7v-2l-8 1zM47 121h1c1 1 2-3 2-3h-2 5v-1h-4l-1 1-1 3zM79 166l1 1 4-1-1-1-4 1zM76 168l4-1h-2l-2 1z" fill="#000"/><path d="M47 123l2 1 7 6s5 2 7 5c3 3 6 1 6 1 3-1 11-12 11-12l1 13-1 4v3l-3 13c1 1-1 6-1 6v5s7-1 8-3l-2-2v-1l2-6 2-8v-3l1-1v-1l1-2-1-1 1-2v-2l2-7 1-10v-4c-2 1-4-2-4-3v-1l-7-1h-2c-4 2-5 7-5 7l-3 6c-2 4-5 5-5 5l-6-5-2-1-2-1v-2l-2-3c-6 0-6 6-6 7z" fill="#3F3D56"/><path d="M81 106h3V95h-3v11z" fill="#F86D70"/><path opacity=".1" d="M81 106h3V95h-3v11zM90 72l1 2h3v-1l-4-1z" fill="#000"/><path d="M90 72s1 6-1 7l-2 5 5 4 3 5 1 5-2 8 1 8h1v-7l1-9v-7s-4-3-4-5c-1-1 2-13 2-13l-5-1z" fill="#F86D70"/><path opacity=".1" d="M81 94l1 2h2l9-2 3-1-4-5v-1l-5-3s8 7 6 8-6-2-6-2l-6-4c2 1 4 3 4 5 1 3-4 3-4 3z" fill="#000"/><path d="M79 111s5 3 6 1h2v-1l-7-1-1 1z" fill="#444053"/><path d="M81 86l6 4s4 3 6 2-6-8-6-8l5 3 1 1c2 2 3 2 3 6l-1 2-1 7-1 8c1 2-6-1-8 1-1 1-6-1-6-1l4-8v-6c-2-1-2-3-2-3s5 0 4-3a8 8 0 00-4-5z" fill="#E8E8F0"/><path opacity=".1" d="M89 97s-2 4-5 5 5-3 5-5z" fill="#000"/><path d="M60 63l1 3 7 10 1 1v1l4-1v-1l-2-3-3-2s-5-6-5-8c-1-1-6-10-7-9-2 2 4 9 4 9z" fill="#FBBEBE"/><g opacity=".1" fill="#000"><path opacity=".1" d="M71 104h-2l-1 3-3 2h-1 2c2 0 3-1 3-2l2-3h1-1zM80 84l3-6c1-1 2-4 1-5-1-2-6-4-8-4 2 1 6 2 6 4 1 1 0 4-1 5l-3 6v7c-1 1 1 2 1 3l-1 8v1l-3 1h1l4-1v-1l1-8-2-3 1-7z"/></g><path opacity=".1" d="M69 77v1l4-1v-1l-4 1z" fill="#000"/><path opacity=".1" d="M83 87s-1-2-2-1l-1-1h-1l-5-8-1-1s-3 2-4 1v1h1l4 8 1 2 2 4 3 4v9l-3 3-1 3v1l1 2 2-3 3-7v-6l1-11z" fill="#000"/><path d="M83 87s-1-2-2-1l-1-1h-1l-5-8-1-1s-3 2-4 1v1l4 8 2 2c-1 1 1 4 1 4l4 4v9l-3 3-1 2v1l-1 1 1 2 3-3 3-7v-6l1-11z" fill="#F86D70"/><path opacity=".1" d="M73 117l4 2-4-2zM80 124s3 3 3 5l-2 8-1-13zM55 120s-5 0-4 1l4-1zM86 140h-1c-2 0 0-1 0-1l1 1zM86 145h0zM81 163h-2l-3 1 5-1zM83 119l-2 4 2-4zM78 86l-1 2h-2M74 77s-2 2-4 1l4-1zM76 111l2-2-2 2zM92 92v-1h-1v-1h-1" fill="#000"/><path opacity=".1" d="M233 1s-22-2-20 14l2 4s0-2 2-1h3l3-1s6-3 8-13l2-3-4 2s2 3 1 5l-1-5-2 1s2 5 0 8c0 0 1-6-1-8l-2 2s2 5 0 9c0 0 1-6-1-9l-2 2s2 5 1 8l-2-7-2 2v5l-1-4-2 5 2-6-3 2s0-2 3-2l2-3-5 1s2-2 6-1l2-2h-6s2-2 7-1l3-1-6-1h8l-3-1h-1 5l4-1zM205 4s-10 0-8 7c0 0-1 1 1 2l1-1h2s3-1 4-6l1-1-2 1v0h-1v0l-2 1 1 4-1-4-1 1v0l-1 1v3l-1-2-1 2 1-3-1 1 1-1 1-1h-2 3l1-1h-3 3l1-1h-3 4V5h-2 3l1-1z" fill="#00BAFC"/><path d="M240 171c6 0 11-1 11-2l-11-1-10 1c0 1 4 2 10 2zM245 166l1-1-1-2-2 1-2 1a3 3 0 001-3h-2l-1 4v-1l-1-2h-3v2l2 2 1 1h4l3-2z" fill="#00BAFC"/></g><defs><linearGradient id="paint0_linear" x1="212" y1="132.9" x2="212" y2="27.4" gradientUnits="userSpaceOnUse"><stop stop-color="gray" stop-opacity=".3"/><stop offset=".5" stop-color="gray" stop-opacity=".1"/><stop offset="1" stop-color="gray" stop-opacity=".1"/></linearGradient><linearGradient id="paint1_linear" x1="10450.5" y1="65713.3" x2="23402.9" y2="65713.3" gradientUnits="userSpaceOnUse"><stop stop-color="gray" stop-opacity=".3"/><stop offset=".5" stop-color="gray" stop-opacity=".1"/><stop offset="1" stop-color="gray" stop-opacity=".1"/></linearGradient><clipPath id="clip0"><path fill="#fff" d="M0 0h300v171H0z"/></clipPath></defs></svg>