<svg width="300" height="225" fill="none" xmlns="http://www.w3.org/2000/svg"><g clip-path="url(#clip0)"><path d="M288 199l1-4 6-2v2l1-2 4-1s-2 9-7 15l-6 1 4 1-2 2c-7 7-15 10-18 7-2-3 1-11 9-17l7-5 1 3z" fill="#E6E6E6"/><path d="M277 195l-1-5 4-5 1 2-1-2 3-3s3 9 2 17l-4 4 4-2v3c-3 9-8 16-12 15s-5-10-2-19l4-8 2 3z" fill="#E6E6E6"/><path d="M299 219H125h174z" fill="#3F3D56"/><path d="M8 88c-2-3-3-9 1-12 2-2 5-2 7-1l9 5 7 8a203 203 0 0023 23 169 169 0 0035 22c4 2 11 4 15 0 2-3 2-6 1-9l-3-9-18-42-4-10-2-10c0-3 1-7 3-9s5-3 7-3c6 0 12 3 17 7l17 13c5 4 11 7 17 7l7-1c2-2 4-4 4-6l1-8-3-9c-3-7-7-12-11-18l-4-9c-1-3-2-6-1-9 2-7 9-4 13-2l8 4V9l-8-5-7-1-6 2-1 8 4 10 5 8c3 6 7 12 9 19 1 5 2 12-3 16l-8 1c-3 0-6-1-8-3-13-6-21-18-35-22-4-2-11-3-15 1-2 2-3 5-3 8l2 10 3 10 5 10 9 22 5 11 3 10c1 3 1 7-2 9-2 2-5 2-7 1l-9-3a135 135 0 01-27-17 171 171 0 01-24-23l-7-8-8-7c-2-1-5-3-8-3a8 8 0 00-6 3l-2 6 2 7c1 0 2 0 1-1zM47 7H6v36h41V7z" fill="#E6E6E6"/><path d="M47 71H6v36h41V71zM177 7h-41v36h41V7z" fill="#00BAFC"/><path d="M177 71h-41v36h41V71z" fill="#E6E6E6"/><path d="M112 7H72v36h40V7zM112 71H72v36h40V71z" fill="#00BAFC"/><path d="M72 14a7 7 0 100-14 7 7 0 000 14zM137 14a7 7 0 100-14 7 7 0 000 14zM7 78a7 7 0 100-13 7 7 0 000 13zM72 78a7 7 0 100-13 7 7 0 000 13z" fill="#3F3D56"/><path d="M229 215s-9 1-8 4c1 4 8 3 8 3l9 1c4 1 7 0 7-2 1-2-1-3-1-3l-1-2-14-1z" fill="#2F2E41"/><path d="M205 140l-1 3s-5 9 1 9c5 0 3-8 3-8l1-4h-4zM251 136l1 4s5 9-1 9c-5 0-3-8-3-8v-4l3-1zM226 71a10 10 0 100-21 10 10 0 000 21z" fill="#9F616A"/><path d="M223 68l1 8c-1 3 15 0 15 0l-6-10-10 2z" fill="#9F616A"/><path d="M225 74s-4-1-5 1l-10 5 6 36 25-6 4-33-8-4-12 1z" fill="#D0CDE1"/><path d="M212 81l-1-1s-5 1-5 4l2 22-4 35 7 1 7-29-6-32zM244 77h2s4 1 4 4l-1 22 3 34-7 2-7-29 6-33z" fill="#D0CDE1"/><path d="M216 112l-1 15-3 30 4 61h16l-5-58 5-20 16-1s1-23-8-30l-24 3z" fill="#2F2E41"/><path d="M233 136l-2 54-1 27 14 1 4-79-6-6-9 3zM231 46s-10-1-12 4l-3 4c-3 2 0 6 1 7s2 8 0 10 4 6 4 6 3 4 1 7c-3 3 3 4 3 4s-1 8 1 6c0 0 1 19 10 7s13-17 9-22c-4-4-1-8-1-8s1-3-1-6c-3-4-3-19-12-19zM217 217s-9 0-8 4c1 3 8 3 8 3h9c3 1 7 0 7-1 0-2-2-3-2-3l-1-3h-13z" fill="#2F2E41"/></g><defs><clipPath id="clip0"><path fill="#fff" d="M0 0h300v225H0z"/></clipPath></defs></svg>